<svg width="112" height="34" viewBox="0 0 112 34" fill="none" xmlns="http://www.w3.org/2000/svg">
<path d="M102.133 4.97306L101.276 4.76754C100.14 4.49351 98.7053 4.21529 96.699 4.21529C94.9263 4.21529 93.3967 4.55083 92.1189 5.21493L91.4925 4.47674H82.7419V8.80103C82.6971 8.7507 80.298 4.21529 71.7473 4.21529C65.4069 4.21529 62.9239 6.39632 62.8079 6.4816L61.1106 4.47674H58.3382L54.4613 4.57764e-05L45.7106 2.10278V4.47534H42.4265V7.93142C42.4125 7.91464 40.3797 4.18174 32.2764 4.18174C29.1334 4.18174 25.5348 4.76474 22.1444 5.8245L20.9127 6.20897L23.5634 11.7622C21.9962 12.4724 21.093 13.4203 20.5925 14.3906L20.5072 14.5598L9.29452 1.8665H0V22.3667L9.78804 33.5529H31.0083V31.2754C31.0139 31.281 31.1886 31.4557 31.2222 31.4865C32.5741 32.8384 34.8936 33.5529 37.9666 33.5529H53.7692V31.2907C53.7916 31.3117 55.872 32.1687 57.3008 32.686C58.8862 33.2607 62.2067 33.5948 64.1626 33.5529C66.4122 33.5067 69.7368 33.4158 70.9 33.2495V31.2907C70.9196 31.3089 72.3401 31.973 72.3834 31.9884C75.7388 33.1838 76.8937 33.5529 81.2655 33.5529C85.6373 33.5529 88.5188 32.9894 90.56 31.4305L92.5313 33.5529H101.282V24.4499C102.824 23.056 104.871 22.8547 106.867 22.8547C107.996 22.8547 109.129 23.0056 110.542 23.3454L111.921 23.6767V16.1578L102.133 4.97166V4.97306Z" fill="black"/>
<path d="M20.1017 15.5077V21.2483H1.11841V2.98499H8.17598V15.5091H20.1017V15.5077Z" fill="#F8F2EA"/>
<path d="M32.3307 5.36595C29.3178 5.35476 25.789 5.94056 22.5329 6.95697L24.6496 11.3917C28.198 10.3054 30.6782 10.2397 32.1951 10.2061C33.8015 10.1712 36.1713 10.571 36.3474 11.6126C34.3719 11.4155 32.8704 11.1471 30.8767 11.3022C26.1414 11.6699 21.2019 12.801 21.2019 16.8708C21.2019 20.2626 24.4595 21.5405 28.177 21.5405C30.9997 21.5405 33.8225 21.149 36.3474 19.3748V21.279H42.8611V13.5308C42.8066 7.55676 38.6669 5.38832 32.3293 5.36455L32.3307 5.36595ZM30.4447 17.3029C28.6188 17.3029 27.7799 17.1589 27.7799 16.2095C27.7799 15.1162 29.2172 14.8282 32.5404 14.8282C34.0797 14.8282 35.3366 14.9079 36.3488 15.0687V16.3326C34.6418 16.9016 32.4705 17.3029 30.4447 17.3029Z" fill="#F8F2EA"/>
<path d="M53.3427 10.8115V14.0467C53.3427 15.5343 53.9397 16.2906 55.8397 16.2906C57.3049 16.2906 58.12 16.2906 59.992 16.0292V21.1169C58.4443 21.3783 56.5177 21.5083 54.3731 21.5083C49.3246 21.5083 46.8276 20.0208 46.8276 16.629V10.8101H43.5435V5.59244H46.8276V2.9836L53.3413 1.41774V5.59244H59.9906V10.8101H53.3413L53.3427 10.8115Z" fill="#F8F2EA"/>
<path d="M76.1176 15.3777H82.4957C81.682 19.5258 78.1798 21.5083 71.4759 21.5083C64.7721 21.5083 60.6729 19.2127 60.6729 13.4204C60.6729 7.62806 65.0964 5.3324 71.7471 5.3324C78.3979 5.3324 82.7669 7.62806 82.7669 14.4633H67.3236C67.866 16.1327 69.685 16.5507 71.4759 16.5507C73.8373 16.5507 74.788 16.3941 76.1176 15.3763V15.3777ZM67.6214 11.333H75.8184C75.0858 9.92373 73.457 9.76715 71.7206 9.76715C69.9841 9.76715 68.3554 9.92373 67.6228 11.333H67.6214Z" fill="#F8F2EA"/>
<path d="M101.015 5.85389V11.0716C99.495 10.7067 98.2731 10.5501 97.0791 10.5501C94.7723 10.5501 92.2473 10.8115 90.3753 12.794V21.2469H83.8616V5.59384H90.3753V8.20268C91.8139 6.14189 94.0397 5.3324 96.6989 5.3324C98.5989 5.3324 99.9284 5.59384 101.015 5.85389Z" fill="#F8F2EA"/>
</svg>
